<svg width="500" height="500" xmlns="http://www.w3.org/2000/svg">
 <g>
  <title>background</title>
  <rect x="-1" y="-1" width="502" height="502" id="canvas_background" fill="none"/>
 </g>

 <g>
  <title>Layer 1</title>
  <g id="SVGRepo_bgCarrier" stroke-width="0"/>
  <g id="SVGRepo_tracerCarrier" stroke-linecap="round" stroke-linejoin="round"/>
  <g id="SVGRepo_iconCarrier" stroke="null">
   <path fill-rule="evenodd" clip-rule="evenodd" d="m373.290009,135.822998c-20.848022,-30.145996 -74.621002,-56.235001 -108.243011,-48.157997c-20.76799,4.988998 -17.235992,25.825012 -25.099991,28.062996c-7.864014,2.238007 -48.869003,17.126007 -52.688004,40.892014c-3.819,23.765991 12.778992,25.891983 12.238998,34.099991c-0.540009,8.207993 -27.115997,36.300003 -16.451004,56.516998c10.665009,20.21698 24.362,20.270996 25.151001,28.949005c0.789001,8.678009 12.962997,83.867004 38.042999,107.522003c25.080017,23.654999 80.765991,110.421997 95.692017,95.442993c14.925995,-14.979004 12.388977,-13.799988 23.569,-20.610992c7.735992,-4.712006 25.78598,-8.700012 35.021973,-32.348999c8.809021,-22.558014 -10.571991,-55.973022 -8.914001,-70.208008c0.729004,-6.266998 22.723022,-13.460999 17.149017,-41.355988c-5.574005,-27.89502 -27.257996,-54.59201 -26.899994,-70.274017c0.174988,-7.770996 13.470978,-7.645004 17.365997,-29.513992c3.052002,-17.138 -10.52301,-56.729996 -25.933014,-79.014008l-0.001984,-0.001999z" fill="#4520ab" id="svg_1" stroke="null"/>
   <path fill-rule="evenodd" clip-rule="evenodd" d="m164.093002,356.93399c-8.181,-15.811981 -14.625,-32.342987 -13.916,-50.799988c8.938004,-1.77301 15.888,-7.800018 18.199997,-23.199982c-0.729004,4.855957 9.270996,7.455994 13.574997,5.782959c9.128006,-3.552979 16.175003,-19 12.654007,-23.608978c3.113998,-4.769012 7.238998,-13.651001 2.030991,-18.126999c0,0 4.461014,-13.831009 -1.799988,-16.800003c-5.731003,-2.716003 -16.979004,-2.313004 -16.979004,-2.313004c5.235001,-5.588989 9.492004,-9.61499 14.307999,-14.644989c3.427994,0.825989 10.339996,1.906998 13,1.705994c13.240997,-1 14.875,-15.341003 8.783997,-16.063004c-21.960999,-2.593002 -25.867996,-5.690002 -30.474991,-2.904999c-3.535004,2.134995 -30.400009,27.981995 -33,31.923004c-12.126007,18.32399 -34.640007,51.649994 -38.755005,68.016998c-6.223099,24.752014 8.589996,151.067993 43.233002,150.536987c22.319,-0.342987 40.25499,-29.699982 46.011002,-45.108002c-5.628006,-20.741974 -20.01001,-49.138 -36.869003,-44.399994l-0.001999,0.003998z" fill="#ffb07c" id="svg_2" stroke="null"/>
   <path d="m168.791,282.937012c-0.085007,0 -0.169006,-0.011017 -0.251007,-0.03299c-0.247986,-0.067017 -0.459991,-0.229034 -0.588989,-0.452026c-0.128006,-0.222015 -0.16301,-0.487 -0.097,-0.735016c0.918991,-3.515991 1.524994,-7.107971 1.80899,-10.730988c0.014999,-0.174988 0.077011,-0.34198 0.180008,-0.484985c0.102997,-0.141998 0.242996,-0.253998 0.403992,-0.323029c0.161011,-0.06897 0.339005,-0.092957 0.513,-0.069977c0.174011,0.024017 0.338013,0.093994 0.475006,0.203979c2.425995,2 5.171005,3.578003 8.121002,4.667023c0.242004,0.085999 0.440994,0.264008 0.552002,0.496002c0.110001,0.231995 0.125,0.498993 0.039001,0.740997c-0.086014,0.242004 -0.264008,0.440979 -0.496002,0.552002c-0.23201,0.110992 -0.499008,0.125 -0.740997,0.039001c-2.603012,-0.947021 -5.057007,-2.264008 -7.284012,-3.911011c-0.325989,3.146027 -0.893997,6.262024 -1.699997,9.321014c-0.054993,0.205994 -0.177002,0.38797 -0.345993,0.517975c-0.169006,0.130035 -0.376007,0.201019 -0.589005,0.202026z" fill="#29263B" id="svg_3" stroke="null"/>
   <path fill-rule="evenodd" clip-rule="evenodd" d="m241.518005,280.200012c-9.350006,-4.231018 -23.555008,-14.065002 -37.98201,-6.205994c-20.251999,11.028992 -39.949997,82.916992 -39.949997,82.916992c8.917007,-1.229004 16.149002,12.899994 22.443008,23.349976c12.099991,54.485016 12.081985,100.167023 11.151993,145.189026c46.251999,23.621033 116.210999,23.177979 155.226013,-0.015015c0,0 -0.512024,-52.970001 2.679993,-69.567993c2.98999,-15.546997 29.846008,-36.100006 29.846008,-36.100006c0,0 27.828979,-97.178986 4,-125.563995c-14.458008,-17.221008 -36.007019,-16.212982 -62.300018,-6.322021c-35.618988,13.394012 -71.727997,-1.621979 -85.108002,-7.677002l-0.006989,-0.003967z" fill="#ffcd6a" id="svg_4" stroke="null"/>
   <path fill-rule="evenodd" clip-rule="evenodd" d="m235.110992,167.899994c0,0 -21.082993,59.555008 -10.584,77.922012c10.499008,18.366989 40.28801,22.714005 40.28801,22.714005l-2.367981,18.899994l-21.457016,-7.424988c-6.200012,23.306 -0.443008,49.917969 14.843994,72.917969c20.194992,-15.155975 43.887009,-36.458984 71.834,-65.243988c0,0 -19.118011,8.130981 -22.713989,0.180023c-3.596008,-7.951019 11.074005,-40.32402 11.074005,-40.32402c22.839996,15.159012 40.815979,-19.716995 11.778992,-23.539993c5.408997,-22.009003 -6.546021,-23.638 -7.08902,-34.367004c-0.692993,-13.757004 12.410004,-14.970993 12.114014,-29.737c-23.299988,7.378006 -29.815002,-18.740997 -52.386993,-11.200012c-18.917023,6.322998 -17.90799,21.424011 -45.334015,19.200012l0,0.002991z" fill="#ffb07c" id="svg_5" stroke="null"/>
   <path fill-rule="evenodd" clip-rule="evenodd" d="m293.454987,265.536011c-5.248993,3 -20.324982,4.356995 -28.639984,3l-1.399994,11.14801c13.992004,0.664978 23.600006,-5.296021 30.039978,-14.14801z" fill="#F08855" id="svg_6" stroke="null"/>
   <path fill-rule="evenodd" clip-rule="evenodd" d="m326.226013,406.549988l-7.141022,24.436005c0,0 -94.645996,0.237 -101.827988,1.087006c-21.74501,2.578003 -48.928009,18.466003 -54.557999,22.712006c-7,5.277008 -8.150009,18.070984 4.149994,20.988007c5.242996,13.955994 13.054001,33.28598 20.25,35.078979c10.007996,2.5 11.971008,-6.306 12.111008,-12.599976c6.354996,6.138 31.311996,4.527985 36.212997,-12.381012c15.172989,2.182983 106.605011,3.833008 118.524994,-4.833008c11.920013,-8.665985 30.662994,-61.644989 30.662994,-61.644989c-14.569,-12.287018 -36.061981,-15.946991 -58.384979,-12.841003l0,-0.002014z" fill="#ffb07c" id="svg_7" stroke="null"/>
   <path d="m327,440.946991c-0.140991,0 -0.281006,-0.029999 -0.408997,-0.089996c-0.127991,-0.05899 -0.240997,-0.144989 -0.332001,-0.252991l-8.725006,-10.330994c-0.082001,-0.097015 -0.143982,-0.210022 -0.182983,-0.331024c-0.039001,-0.120972 -0.053009,-0.248993 -0.042023,-0.375977c0.011017,-0.126007 0.046021,-0.25 0.105011,-0.363007c0.057983,-0.113007 0.138,-0.213013 0.234985,-0.29599c0.098022,-0.082001 0.210022,-0.144012 0.331024,-0.182007c0.121979,-0.039001 0.248993,-0.053009 0.375977,-0.042999c0.127014,0.010986 0.25,0.046997 0.363007,0.10498c0.113007,0.059021 0.21402,0.139008 0.296021,0.236023l8.724976,10.330994c0.119019,0.140991 0.196014,0.312988 0.220001,0.496002c0.024994,0.182983 -0.003998,0.368988 -0.080994,0.536987c-0.078003,0.166992 -0.201996,0.309021 -0.358002,0.40802c-0.156006,0.098999 -0.335999,0.151978 -0.520996,0.151978z" fill="#29263B" id="svg_8" stroke="null"/>
   <path d="m194.834,266.083008c-0.255997,0 -0.501007,-0.101013 -0.682007,-0.282013c-5.995987,-5.871979 -13.134995,-10.44899 -20.972992,-13.44899c-0.238998,-0.096008 -0.429001,-0.284012 -0.529999,-0.521011c-0.100998,-0.237 -0.102997,-0.503998 -0.005997,-0.741989c0.095993,-0.238998 0.28299,-0.430008 0.519989,-0.529999c0.237,-0.101013 0.504013,-0.103012 0.743011,-0.007004c8.077988,3.093994 15.432999,7.815002 21.610992,13.869995c0.136002,0.13501 0.229004,0.307983 0.266998,0.496002c0.03801,0.188995 0.018997,0.384003 -0.054001,0.561005c-0.072998,0.177979 -0.196991,0.330017 -0.356995,0.437012c-0.158997,0.106995 -0.347,0.164001 -0.539001,0.164001l0,0.002991z" fill="#29263B" id="svg_9" stroke="null"/>
   <path d="m196.875,247.865005c-0.130997,0 -0.261002,-0.027008 -0.380997,-0.078003c-8.516998,-3.671005 -17.553009,-5.992004 -26.785004,-6.880997c-0.126999,-0.013 -0.248993,-0.05101 -0.360992,-0.112c-0.112015,-0.060013 -0.211014,-0.142014 -0.291,-0.241013c-0.081009,-0.098999 -0.141006,-0.21199 -0.177002,-0.334c-0.036011,-0.121994 -0.048004,-0.25 -0.035004,-0.376999c0.013,-0.126999 0.050995,-0.248993 0.112,-0.360992c0.059998,-0.112 0.141998,-0.210999 0.240997,-0.291c0.098999,-0.081009 0.212997,-0.141006 0.335007,-0.177002c0.121002,-0.035995 0.248993,-0.048004 0.375992,-0.035004c9.427002,0.908005 18.654007,3.278 27.350998,7.027008c0.205002,0.087997 0.374008,0.243988 0.478012,0.442001c0.102997,0.197998 0.134995,0.424988 0.089996,0.643997c-0.044998,0.218994 -0.164001,0.414993 -0.337006,0.556c-0.173004,0.140991 -0.389999,0.218002 -0.612991,0.218002l-0.003006,0z" fill="#29263B" id="svg_10" stroke="null"/>
   <path d="m166.065002,228.757996c-0.251999,-0.007996 -0.490997,-0.113998 -0.666,-0.294998c-0.175003,-0.181 -0.272995,-0.423004 -0.272995,-0.675003c0,-0.250992 0.097992,-0.492996 0.272995,-0.673996c0.175003,-0.181 0.414001,-0.287003 0.666,-0.294998l11.927994,-0.048996c0.257004,-0.001007 0.503998,0.099991 0.686005,0.280991c0.182999,0.181 0.285995,0.427002 0.287003,0.684006c0.000992,0.257004 -0.100006,0.503998 -0.281006,0.686005c-0.181,0.182999 -0.427002,0.285995 -0.68399,0.286987l-11.929001,0.050003l-0.007004,0z" fill="#29263B" id="svg_11" stroke="null"/>
   <path d="m185.727005,380.528992c-0.228012,0 -0.447998,-0.080994 -0.622009,-0.22699c-0.175003,-0.145996 -0.291992,-0.348999 -0.332001,-0.572998c-2.57399,-14.815002 20.190002,-53.964996 21.161011,-55.623993c0.062988,-0.111023 0.147995,-0.209015 0.25,-0.287018c0.100998,-0.078003 0.216995,-0.135986 0.340988,-0.169006c0.124008,-0.03299 0.253006,-0.040985 0.380005,-0.023987c0.126999,0.016998 0.249008,0.05899 0.360001,0.123993c0.110001,0.063995 0.207001,0.149994 0.283997,0.252014c0.077011,0.102997 0.134003,0.218994 0.165009,0.342987c0.031998,0.123993 0.039001,0.253998 0.020996,0.380005c-0.018997,0.127014 -0.061996,0.248993 -0.128006,0.359009c-0.233994,0.399994 -23.377991,40.192993 -20.923996,54.313995c0.044006,0.252991 -0.014999,0.513 -0.162994,0.723999c-0.14801,0.209991 -0.373001,0.352997 -0.626007,0.397003c-0.054993,0.007996 -0.110992,0.011993 -0.166992,0.010986z" fill="#29263B" id="svg_12" stroke="null"/>
   <path d="m321.144989,408.290985c-0.149994,0 -0.298004,-0.033997 -0.431976,-0.100983c-0.134003,-0.06601 -0.251007,-0.162994 -0.34201,-0.28299c-0.089996,-0.119019 -0.152008,-0.258026 -0.179016,-0.406006c-0.027985,-0.147003 -0.020996,-0.299011 0.02002,-0.442993c5.5,-19.324005 8.653992,-35.745026 9.660004,-50.200012c0.006989,-0.127991 0.039001,-0.252991 0.095001,-0.368011c0.056,-0.11499 0.134003,-0.217987 0.230988,-0.302002c0.096008,-0.083984 0.209015,-0.147003 0.330017,-0.186981c0.121979,-0.040009 0.250977,-0.054016 0.377991,-0.042999c0.126984,0.009003 0.251007,0.041992 0.36499,0.098999c0.114014,0.057007 0.216003,0.135986 0.299011,0.231995c0.083984,0.096008 0.14798,0.207001 0.187988,0.328003c0.041016,0.121002 0.057007,0.247986 0.048004,0.375c-0.98999,14.227997 -4.039001,30.317993 -9.317993,49.143005l3.806,-0.58902c0.126007,-0.019989 0.253998,-0.013977 0.377991,0.016022c0.123993,0.028992 0.23999,0.083984 0.343018,0.158997c0.102997,0.074982 0.189972,0.169006 0.256989,0.277985c0.06601,0.109009 0.109985,0.229004 0.130005,0.355011c0.019989,0.126007 0.013977,0.253998 -0.016022,0.377991c-0.028992,0.123993 -0.082977,0.23999 -0.158997,0.343018c-0.074982,0.102997 -0.168976,0.190002 -0.277985,0.256989c-0.108002,0.06601 -0.229004,0.109985 -0.355011,0.130005l-5.299988,0.819c-0.049011,0.006989 -0.098999,0.010986 -0.149017,0.009979z" fill="#29263B" id="svg_13" stroke="null"/>
   <path d="m252.113998,220.345001c-0.110992,0 -0.222,-0.018997 -0.326996,-0.056c-0.341995,-0.123001 -8.359009,-3.057007 -8.147003,-8.231003c0.194,-4.772995 8.248001,-18.186005 12.667007,-22.087006c0.094971,-0.084 0.205994,-0.148987 0.326996,-0.189987c0.119995,-0.042007 0.247986,-0.059006 0.375,-0.05101c0.126984,0.008011 0.251007,0.041 0.36499,0.097c0.11499,0.056 0.21701,0.134003 0.300995,0.229004c0.084015,0.095001 0.149017,0.205994 0.190033,0.326996c0.041962,0.12001 0.05899,0.248001 0.050995,0.375c-0.007996,0.126999 -0.041016,0.251007 -0.097015,0.365005c-0.056,0.115005 -0.134003,0.216995 -0.229004,0.300995c-3.98999,3.522003 -11.841003,16.5 -12.013992,20.712997c-0.126999,3.117004 4.912994,5.624008 6.86499,6.327011c0.215012,0.076996 0.395004,0.22699 0.51001,0.425003c0.11499,0.196991 0.155991,0.427994 0.116989,0.653c-0.038986,0.224991 -0.155991,0.428986 -0.330994,0.574997c-0.173996,0.147003 -0.395004,0.227997 -0.623001,0.227997z" fill="#29263B" id="svg_14" stroke="null"/>
   <path d="m270.399994,238.684006c-0.182007,0 -0.359985,-0.05101 -0.514008,-0.14801c-0.154999,-0.095993 -0.278992,-0.233994 -0.357971,-0.397995c-0.577026,-1.343002 -1.414001,-2.557999 -2.463013,-3.576004c-1.048004,-1.01799 -2.288025,-1.819 -3.647003,-2.356003c-0.848999,-0.306992 -1.751984,-0.439987 -2.653015,-0.39299c-0.901978,0.04599 -1.78598,0.272995 -2.598969,0.666c-0.230011,0.11499 -0.496033,0.134003 -0.740021,0.052994c-0.243988,-0.080994 -0.444977,-0.255997 -0.559998,-0.485992c-0.115997,-0.229004 -0.134979,-0.49501 -0.053986,-0.738998c0.082001,-0.244003 0.255981,-0.446014 0.485992,-0.561005c1.041992,-0.507996 2.175995,-0.803009 3.334015,-0.867996c1.157959,-0.064011 2.316986,0.102997 3.408997,0.492996c1.602997,0.617996 3.066986,1.548004 4.307983,2.735992c1.242004,1.187012 2.235016,2.610001 2.921997,4.184006c0.071991,0.147995 0.105011,0.311005 0.096008,0.475006c-0.009003,0.163986 -0.05899,0.322998 -0.145996,0.46199c-0.087006,0.139008 -0.208008,0.253998 -0.35202,0.334c-0.142975,0.080002 -0.304993,0.122009 -0.468994,0.122009z" fill="#29263B" id="svg_15" stroke="null"/>
   <path d="m307.473999,184.850006c-0.506989,0 -0.998993,-0.166 -1.402985,-0.472c-0.404022,-0.306 -0.697021,-0.735001 -0.835022,-1.223007c-1.299988,-4.613007 -3.242004,-7.664993 -5.764984,-9.067993c-2.223022,-1.235016 -5.062012,-1.32901 -8.681,-0.287003c-0.58902,0.158005 -1.216003,0.077988 -1.746002,-0.220993c-0.531006,-0.300018 -0.923004,-0.796021 -1.09201,-1.381012c-0.167999,-0.585007 -0.100983,-1.213989 0.188995,-1.75c0.289001,-0.535995 0.778015,-0.936996 1.360016,-1.116989c4.799988,-1.38501 8.916992,-1.152008 12.22998,0.690002c3.700012,2.056 6.308014,5.93898 7.983002,11.870987c0.097015,0.346008 0.113007,0.710007 0.046021,1.063004c-0.067017,0.352997 -0.21402,0.686005 -0.431,0.972c-0.21701,0.287003 -0.498016,0.518997 -0.819,0.679001c-0.322021,0.160004 -0.677002,0.244003 -1.036011,0.244003z" fill="#29263B" id="svg_16" stroke="null"/>
   <path d="m239.981003,178.021011c-0.416,-0.001022 -0.824997,-0.113007 -1.182999,-0.325012c-0.358002,-0.212997 -0.652008,-0.516998 -0.852997,-0.881989c-0.200012,-0.365021 -0.299011,-0.776001 -0.286011,-1.192001c0.013,-0.416016 0.137009,-0.821014 0.360001,-1.173019c5.007996,-7.899979 10.867004,-7.048981 14.900009,-4.945999c0.546997,0.285004 0.957993,0.776001 1.14299,1.365005c0.186005,0.588013 0.128998,1.225998 -0.155991,1.772995c-0.285004,0.547012 -0.776001,0.958008 -1.365005,1.143005c-0.587997,0.185013 -1.225998,0.129013 -1.772995,-0.156006c-2.621002,-1.367981 -5.5,-1.914001 -8.818008,3.312012c-0.209991,0.332001 -0.500992,0.604996 -0.845001,0.794006c-0.345001,0.18898 -0.731003,0.287994 -1.123993,0.287003z" fill="#29263B" id="svg_17" stroke="null"/>
   <path fill-rule="evenodd" clip-rule="evenodd" d="m294.856995,182.365005c2.295013,0.58699 3.205994,4.786987 2.033997,9.373993c-1.171997,4.587006 -3.98999,7.835007 -6.281982,7.248001c-2.292023,-0.587006 -3.205994,-4.787994 -2.03302,-9.373993c1.173004,-4.586014 3.987,-7.835007 6.281006,-7.248001z" fill="#29263B" id="svg_18" stroke="null"/>
   <path fill-rule="evenodd" clip-rule="evenodd" d="m245.600006,179.052002c2.11499,0.411987 3.160995,4.179001 2.339996,8.405991c-0.820999,4.227005 -3.209,7.321014 -5.322998,6.909012c-2.113998,-0.412003 -3.161011,-4.177002 -2.340012,-8.400009c0.821014,-4.222992 3.209,-7.32399 5.323013,-6.911987l0,-0.003006z" fill="#29263B" id="svg_19" stroke="null"/>
   <path d="m324.009003,242.839005c-0.196991,0 -0.390991,-0.052002 -0.561005,-0.151001c-0.257996,-0.149002 -0.446991,-0.393997 -0.523987,-0.682007c-0.078003,-0.289001 -0.038025,-0.595993 0.110992,-0.854004c3.109985,-5.399994 8.042999,-7.917999 14.664001,-7.490997c0.148987,0.007004 0.29599,0.042999 0.431,0.10701c0.13501,0.063995 0.255981,0.154999 0.355988,0.265991c0.100006,0.111008 0.175995,0.242004 0.225006,0.383011c0.049011,0.140991 0.069,0.290985 0.059998,0.439987c-0.01001,0.149002 -0.049011,0.294998 -0.115997,0.429001c-0.06601,0.134003 -0.158997,0.253006 -0.272003,0.350006c-0.113007,0.097992 -0.244995,0.171997 -0.386993,0.218994c-0.141998,0.046005 -0.291992,0.063004 -0.44101,0.05101c-5.779999,-0.378006 -9.886993,1.71199 -12.570984,6.368988c-0.098022,0.172012 -0.240021,0.314011 -0.412018,0.41301c-0.17099,0.098999 -0.36499,0.151001 -0.562988,0.151001z" fill="#494645" id="svg_20" stroke="null"/>
   <path fill-rule="evenodd" clip-rule="evenodd" d="m115.727997,87.723999c-0.062996,-12.988998 10.027,-24.265999 32.612,-24.714001c22.585007,-0.447998 37.660004,13.699001 34.960007,24.655003c-3.520996,14.292 -28.059998,18.305 -27.660004,33.381996c0.059998,2.294006 -14.880005,2.087006 -14.880005,-0.208c-0.343994,-15.017998 29.459,-22.27401 29.909012,-33.454994c0.393997,-9.800003 -7.612,-15.115005 -22.208008,-15.115005c-10.141998,0 -18.665009,5.223999 -19.411987,15.338005c-0.128021,2.138 -13.312012,2.258011 -13.323013,0.116997l0.001999,0z" fill="#e32400" id="svg_21" stroke="null"/>
   <path fill-rule="evenodd" clip-rule="evenodd" d="m148.119003,128.171997c5.692001,0 10.311996,3.059998 10.311996,6.831009c0,3.770996 -4.619995,6.830002 -10.311996,6.830002c-5.692001,0 -10.311005,-3.059998 -10.311005,-6.830002c0,-3.770004 4.619995,-6.831009 10.311005,-6.831009z" fill="#e32400" id="svg_22" stroke="null"/>
  </g>
 </g>
</svg>